<svg xmlns="http://www.w3.org/2000/svg" width="25" height="24" viewBox="0 0 25 24" fill="none">
    <path d="M2.5 5.2C2.5 4.07989 2.5 3.51984 2.71799 3.09202C2.90973 2.71569 3.21569 2.40973 3.59202 2.21799C4.01984 2 4.57989 2 5.7 2H7.3C8.42011 2 8.98016 2 9.40798 2.21799C9.78431 2.40973 10.0903 2.71569 10.282 3.09202C10.5 3.51984 10.5 4.07989 10.5 5.2V6.8C10.5 7.92011 10.5 8.48016 10.282 8.90798C10.0903 9.28431 9.78431 9.59027 9.40798 9.78201C8.98016 10 8.42011 10 7.3 10H5.7C4.57989 10 4.01984 10 3.59202 9.78201C3.21569 9.59027 2.90973 9.28431 2.71799 8.90798C2.5 8.48016 2.5 7.92011 2.5 6.8V5.2Z" stroke="#131313" stroke-width="1.5" stroke-linecap="round" stroke-linejoin="round"/>
    <path d="M14.5 5.2C14.5 4.07989 14.5 3.51984 14.718 3.09202C14.9097 2.71569 15.2157 2.40973 15.592 2.21799C16.0198 2 16.5799 2 17.7 2H19.3C20.4201 2 20.9802 2 21.408 2.21799C21.7843 2.40973 22.0903 2.71569 22.282 3.09202C22.5 3.51984 22.5 4.07989 22.5 5.2V6.8C22.5 7.92011 22.5 8.48016 22.282 8.90798C22.0903 9.28431 21.7843 9.59027 21.408 9.78201C20.9802 10 20.4201 10 19.3 10H17.7C16.5799 10 16.0198 10 15.592 9.78201C15.2157 9.59027 14.9097 9.28431 14.718 8.90798C14.5 8.48016 14.5 7.92011 14.5 6.8V5.2Z" stroke="#131313" stroke-width="1.5" stroke-linecap="round" stroke-linejoin="round"/>
    <path d="M2.5 17.2C2.5 16.0799 2.5 15.5198 2.71799 15.092C2.90973 14.7157 3.21569 14.4097 3.59202 14.218C4.01984 14 4.57989 14 5.7 14H7.3C8.42011 14 8.98016 14 9.40798 14.218C9.78431 14.4097 10.0903 14.7157 10.282 15.092C10.5 15.5198 10.5 16.0799 10.5 17.2V18.8C10.5 19.9201 10.5 20.4802 10.282 20.908C10.0903 21.2843 9.78431 21.5903 9.40798 21.782C8.98016 22 8.42011 22 7.3 22H5.7C4.57989 22 4.01984 22 3.59202 21.782C3.21569 21.5903 2.90973 21.2843 2.71799 20.908C2.5 20.4802 2.5 19.9201 2.5 18.8V17.2Z" stroke="#131313" stroke-width="1.5" stroke-linecap="round" stroke-linejoin="round"/>
    <path d="M14.5 17.2C14.5 16.0799 14.5 15.5198 14.718 15.092C14.9097 14.7157 15.2157 14.4097 15.592 14.218C16.0198 14 16.5799 14 17.7 14H19.3C20.4201 14 20.9802 14 21.408 14.218C21.7843 14.4097 22.0903 14.7157 22.282 15.092C22.5 15.5198 22.5 16.0799 22.5 17.2V18.8C22.5 19.9201 22.5 20.4802 22.282 20.908C22.0903 21.2843 21.7843 21.5903 21.408 21.782C20.9802 22 20.4201 22 19.3 22H17.7C16.5799 22 16.0198 22 15.592 21.782C15.2157 21.5903 14.9097 21.2843 14.718 20.908C14.5 20.4802 14.5 19.9201 14.5 18.8V17.2Z" stroke="#131313" stroke-width="1.5" stroke-linecap="round" stroke-linejoin="round"/>
</svg>