<svg width="23" height="22" viewBox="0 0 23 22" fill="none" xmlns="http://www.w3.org/2000/svg">
<path d="M7.5 3V1M7.5 21V19M1.5 7H3.5M19.5 7H21.5M11.5 3V1M11.5 21V19M1.5 11H3.5M19.5 11H21.5M15.5 3V1M15.5 21V19M1.5 15H3.5M19.5 15H21.5M10.9 14H12.1C12.9401 14 13.3601 14 13.681 13.8365C13.9632 13.6927 14.1927 13.4632 14.3365 13.181C14.5 12.8601 14.5 12.4401 14.5 11.6V10.4C14.5 9.55992 14.5 9.13988 14.3365 8.81901C14.1927 8.53677 13.9632 8.3073 13.681 8.16349C13.3601 8 12.9401 8 12.1 8H10.9C10.0599 8 9.63988 8 9.31901 8.16349C9.03677 8.3073 8.8073 8.53677 8.66349 8.81901C8.5 9.13988 8.5 9.55992 8.5 10.4V11.6C8.5 12.4401 8.5 12.8601 8.66349 13.181C8.8073 13.4632 9.03677 13.6927 9.31901 13.8365C9.63988 14 10.0599 14 10.9 14ZM9.9 19H13.1C15.3402 19 16.4603 19 17.316 18.564C18.0686 18.1805 18.6805 17.5686 19.064 16.816C19.5 15.9603 19.5 14.8402 19.5 12.6V9.4C19.5 7.15979 19.5 6.03968 19.064 5.18404C18.6805 4.43139 18.0686 3.81947 17.316 3.43597C16.4603 3 15.3402 3 13.1 3H9.9C7.65979 3 6.53968 3 5.68404 3.43597C4.93139 3.81947 4.31947 4.43139 3.93597 5.18404C3.5 6.03968 3.5 7.15979 3.5 9.4V12.6C3.5 14.8402 3.5 15.9603 3.93597 16.816C4.31947 17.5686 4.93139 18.1805 5.68404 18.564C6.53968 19 7.65979 19 9.9 19Z" stroke="#131313" stroke-width="1.5" stroke-linecap="round" stroke-linejoin="round"/>
</svg>
