<svg width="23" height="22" viewBox="0 0 23 22" fill="none" xmlns="http://www.w3.org/2000/svg">
<path d="M14.5 21L15 20.5L16.5804 18.9196C19.3525 16.1475 20.7386 14.7614 21.2579 13.1631C21.7147 11.7572 21.7147 10.2428 21.2579 8.83688C20.7386 7.23858 19.3525 5.85252 16.5804 3.08041L15.5 2L15 1.5M10.5 9C10.5 10.1046 9.60457 11 8.5 11C7.39543 11 6.5 10.1046 6.5 9C6.5 7.89543 7.39543 7 8.5 7C9.60457 7 10.5 7.89543 10.5 9ZM15.9745 6.47452L13.3745 3.87452C12.6827 3.18271 12.3368 2.83681 11.9331 2.58944C11.5753 2.37012 11.1851 2.20851 10.7769 2.11052C10.3166 2 9.8274 2 8.84903 2H7.9C5.65979 2 4.53968 2 3.68404 2.43597C2.93139 2.81947 2.31947 3.43139 1.93597 4.18404C1.5 5.03968 1.5 6.15979 1.5 8.4V9.34903C1.5 10.3274 1.5 10.8166 1.61052 11.2769C1.70851 11.6851 1.87012 12.0753 2.08944 12.4331C2.33681 12.8368 2.68271 13.1827 3.37451 13.8745L5.97452 16.4745C7.55858 18.0586 8.35062 18.8506 9.26393 19.1474C10.0673 19.4084 10.9327 19.4084 11.7361 19.1474C12.6494 18.8506 13.4414 18.0586 15.0255 16.4745L15.9745 15.5255C17.5586 13.9414 18.3506 13.1494 18.6474 12.2361C18.9084 11.4327 18.9084 10.5673 18.6474 9.76393C18.3506 8.85062 17.5586 8.05859 15.9745 6.47452Z" stroke="#131313" stroke-width="1.5" stroke-linecap="round" stroke-linejoin="round"/>
</svg>
