<svg width="23" height="22" viewBox="0 0 23 22" fill="none" xmlns="http://www.w3.org/2000/svg">
<path d="M14.5 15C18.366 15 21.5 11.866 21.5 8C21.5 7.30503 21.3987 6.63371 21.2101 6L18.7627 8.44738L18.7627 8.4474C17.9707 9.23942 17.5747 9.63543 17.118 9.78381C16.7163 9.91432 16.2837 9.91432 15.882 9.78381C15.4253 9.63543 15.0293 9.23941 14.2373 8.44738L14.0526 8.26274C13.2606 7.47071 12.8646 7.07469 12.7162 6.61803C12.5857 6.21635 12.5857 5.78365 12.7162 5.38197C12.8646 4.92531 13.2606 4.52929 14.0526 3.73726L16.5 1.28988C15.8663 1.10128 15.195 1 14.5 1C10.634 1 7.5 4.13401 7.5 8C7.5 9.0736 7.56806 10.5907 8 11.5L2 17.5L1.99986 17.5001C1.9203 17.5797 1.8805 17.6195 1.84847 17.6547C1.15508 18.4176 1.15508 19.5824 1.84847 20.3453C1.8805 20.3805 1.9203 20.4203 1.99987 20.4999L2 20.5C2.07965 20.5797 2.11948 20.6195 2.15474 20.6515C2.91756 21.3449 4.08244 21.3449 4.84526 20.6515C4.88052 20.6195 4.92035 20.5797 5 20.5L11 14.5C11.9093 14.9319 13.4264 15 14.5 15Z" stroke="#131313" stroke-width="1.5" stroke-linecap="round" stroke-linejoin="round"/>
</svg>
