<svg width="25" height="22" viewBox="0 0 25 22" fill="none" xmlns="http://www.w3.org/2000/svg">
<path d="M15.5 9C17.7091 9 19.5 7.20914 19.5 5C19.5 2.79086 17.7091 1 15.5 1M17.5 21H20.3C22.0673 21 23.5 19.5673 23.5 17.8V17.8C23.5 15.149 21.351 13 18.7 13H17.5M12.5 5C12.5 7.20914 10.7091 9 8.5 9C6.29086 9 4.5 7.20914 4.5 5C4.5 2.79086 6.29086 1 8.5 1C10.7091 1 12.5 2.79086 12.5 5ZM4.7 21H12.3C14.0673 21 15.5 19.5673 15.5 17.8V17.8C15.5 15.149 13.351 13 10.7 13H6.3C3.64903 13 1.5 15.149 1.5 17.8V17.8C1.5 19.5673 2.93269 21 4.7 21Z" stroke="#131313" stroke-width="1.5" stroke-linecap="round" stroke-linejoin="round"/>
</svg>
